/* XPM */
static char *dummy[]={
"32 32 387 2",
"Qt c None",
"e# c None",
".o c #000000",
"bM c #1d1d1c",
"#s c #1f1f1e",
"aD c #212120",
"cd c #2f2f2e",
"#r c #282827",
"cP c #191918",
"b0 c #1f1f1e",
"e. c #2f2f2e",
"ea c #2f2f2e",
"bN c #1b1b1a",
"ce c #2f2f2e",
"am c #0a0a09",
"cO c #262625",
"bZ c #282827",
"d9 c #2f2f2e",
"ac c #1d1d1c",
"cQ c #20201f",
".W c #222221",
"dM c #2e2e2d",
"dL c #2f2f2e",
"d7 c #323231",
"d8 c #353533",
"bq c #1d1d1c",
"dR c #313130",
"#Q c #0a0a08",
".F c #141413",
"## c #262624",
".i c #272726",
"cA c #0c0c0b",
"aE c #1c1c1b",
"dG c #323231",
"av c #1d1d1c",
"#e c #222221",
"#Y c #222221",
".d c #3a3a39",
"a9 c #1d1d1c",
"#A c #222221",
"dA c #2f2f2e",
"aO c #1d1d1c",
"df c #282827",
"dW c #131312",
"cf c #232322",
"bO c #343433",
"#P c #20201f",
"al c #10100f",
".h c #313130",
".V c #323231",
"d1 c #323231",
"#. c #1d1d1c",
"cz c #191918",
"bL c #20201f",
"d6 c #323231",
".e c #181817",
".n c #313130",
"#t c #000000",
".s c #0a0a08",
".S c #131312",
".# c #1a1a19",
"ad c #1b1b1a",
"cR c #1e1e1c",
".X c #20201e",
"c8 c #141413",
"dF c #343433",
"dX c #1b1b1a",
"cc c #090908",
"#O c #282827",
"ab c #1f1f1e",
".r c #2f2f2e",
"#d c #30302f",
"d2 c #151514",
"b1 c #171716",
"aN c #191918",
"#q c #1b1b1a",
"aC c #1c1c1b",
"aW c #0a0a09",
"cm c #191918",
"#X c #1a1a19",
"bp c #1f1f1e",
".R c #20201f",
"dQ c #2e2e2d",
"br c #1b1b1a",
"dS c #313130",
"a8 c #1b1b1a",
"dz c #222221",
"au c #1c1c1b",
"bY c #20201f",
"cN c #363635",
"dK c #2e2e2d",
".c c #30302f",
".g c #30302f",
"#z c #262625",
".E c #282827",
"aX c #0e0e0c",
"aY c #181817",
".T c #1c1c1b",
".a c #222221",
".U c #2c2c2a",
".f c #2e2e2c",
".b c #2f2f2d",
".z c #282827",
"aZ c #181817",
"cS c #3b3b3a",
"ak c #252524",
".9 c #272726",
"#u c #2c2c2c",
".t c #2d2d2b",
".Y c #383837",
"ae c #3c3c3c",
"dV c #1d1d1c",
"d0 c #30302f",
"cy c #262625",
"bK c #282827",
"d5 c #30302f",
"du c #121210",
"dq c #171715",
"dp c #181817",
"dr c #1b1b1a",
"d3 c #1d1d1c",
"dY c #222221",
"ds c #292928",
"dU c #2a2a27",
".p c #2a2a29",
"d4 c #2d2d2a",
"dt c #2d2d2c",
"dZ c #2f2f2d",
"dT c #313130",
"#N c #434342",
"aV c #464646",
"dk c #1e1e1d",
"cn c #0f0f0e",
".y c #111110",
"b2 c #191918",
"dv c #2b2b2a",
"bs c #3e3e3d",
"#R c #141413",
".G c #1b1b19",
"#a c #292928",
".j c #2b2b2a",
"aw c #1b1b1a",
"#f c #20201e",
"an c #20201d",
"dH c #343433",
"cB c #161615",
"aF c #20201e",
"#Z c #20201e",
"cg c #1b1b1a",
"b. c #1b1b1a",
"dB c #2e2e2d",
"bP c #353534",
"dN c #363635",
".8 c #5a5a59",
"aj c #696968",
"#B c #20201e",
"dj c #4a4a49",
"bJ c #515150",
"cx c #646463",
"aP c #1b1b1a",
"dg c #262625",
"do c #20201f",
"a0 c #161614",
"cT c #616160",
".A c #646463",
".Z c #535352",
".u c #5d5d5c",
"af c #686867",
"#v c #757574",
"b3 c #10100f",
"dl c #636362",
".m c #2f2f2e",
"bt c #7a7a79",
"dw c #868685",
"aa c #282827",
".q c #2f2f2e",
"c7 c #1e1e1d",
"aM c #262625",
"#p c #272726",
"aB c #282827",
"bX c #2b2b2a",
"cM c #353535",
"dE c #343433",
"#W c #262625",
".Q c #282827",
"dP c #2f2f2e",
"dJ c #2f2f2e",
"#M c #555555",
"aU c #6f6f6e",
".7 c #7a7a7a",
"ai c #949494",
"cb c #1c1c1b",
"bf c #222220",
"bg c #2a2a29",
"#b c #2d2d2c",
".k c #2e2e2d",
"#c c #333331",
".l c #343432",
".N c #373736",
"bI c #727272",
"cw c #909090",
"bh c #292928",
".H c #393938",
"#g c #3b3b3a",
"#S c #3c3c3c",
"c9 c #3d3d3c",
"ax c #404040",
"a7 c #272726",
"dy c #2a2a29",
".M c #191918",
"a# c #616160",
"be c #6a6a6a",
".O c #8f8f8e",
"bi c #20201f",
"at c #272726",
"#h c #838382",
".I c #8e8e8d",
"d. c #929291",
"ay c #aeaead",
"#T c #b0b0af",
".L c #232322",
"a. c #a6a6a6",
"bd c #d0d0d0",
".x c #232321",
"cZ c #242423",
"dd c #282827",
"cK c #292928",
"bR c #2c2c2b",
"#y c #2d2d2c",
".D c #2e2e2d",
"cL c #30302f",
"a1 c #313130",
"#6 c #323231",
"b4 c #333332",
"dC c #343433",
"bj c #353534",
"dc c #363635",
"db c #373736",
"dI c #383836",
"bQ c #383837",
"dO c #393937",
"co c #393938",
"dD c #3a3a38",
"#0 c #3b3b3a",
"cC c #3c3c3b",
"#C c #3f3f3e",
"b# c #414140",
"bS c #424241",
"c3 c #454544",
".w c #464644",
"aQ c #474747",
"dn c #535351",
".C c #545452",
"cY c #5b5b5b",
"#x c #5c5c5a",
".K c #5f5f5e",
"dx c #646463",
"cE c #646464",
"bo c #656564",
"c0 c #666665",
"#5 c #666666",
".v c #696968",
"c4 c #6c6c6c",
"as c #70706e",
"#o c #70706f",
"c6 c #707070",
"aL c #717170",
"aq c #727271",
".B c #747473",
"dh c #767675",
"bB c #767676",
"cU c #777776",
"cJ c #777777",
"aA c #787877",
".0 c #797978",
"#V c #7a7a79",
"dm c #7b7b7b",
"by c #7c7c7c",
"bA c #7d7d7d",
"bz c #7e7e7d",
".5 c #7e7e7e",
"#7 c #7f7f7f",
"a2 c #80807f",
".4 c #818180",
"di c #818181",
"bk c #838382",
"#1 c #858584",
".6 c #868685",
"ag c #868686",
"#w c #888887",
"cV c #898988",
"bx c #8b8b8a",
"#D c #8d8d8c",
"c2 c #8d8d8d",
"c5 c #8e8e8e",
"#L c #919190",
"d# c #919191",
"ap c #949494",
"cv c #969695",
"cr c #989897",
"#I c #999999",
"bH c #9a9a9a",
"ah c #9d9d9c",
"c1 c #9d9d9d",
"bu c #9e9e9e",
"bw c #9f9f9e",
"cW c #9f9f9f",
"bT c #a0a09f",
"ar c #a2a2a2",
"ch c #a4a4a3",
".3 c #a4a4a4",
"bv c #a5a5a5",
"cD c #a6a6a5",
"b5 c #a7a7a6",
"ba c #a8a8a7",
"cq c #a9a9a9",
".J c #ababab",
"ct c #acacac",
"bC c #adadac",
"cH c #adadad",
"#H c #afafaf",
".P c #b0b0b0",
"de c #b1b1b0",
"bl c #b5b5b5",
"aT c #b6b6b5",
"da c #b6b6b6",
".1 c #b7b7b6",
"bm c #b7b7b7",
"#i c #bababa",
"a3 c #bbbbbb",
"#8 c #bcbcbc",
"aR c #bebebd",
"aG c #bfbfbf",
"#2 c #c0c0c0",
"#9 c #c1c1c1",
"bn c #c3c3c3",
"bE c #c4c4c4",
"bF c #c5c5c5",
"#J c #c7c7c7",
"a4 c #c8c8c8",
"#E c #c9c9c9",
"bG c #cacaca",
"bD c #cbcbcb",
"a6 c #cccccc",
"#n c #cdcdcd",
"cX c #cecece",
"cu c #cfcfcf",
".2 c #d0d0d0",
"#K c #d1d1d1",
"aK c #d2d2d2",
"#4 c #d3d3d3",
"#j c #d4d4d4",
"az c #d5d5d5",
"cG c #d6d6d6",
"cl c #d7d7d7",
"aH c #d8d8d8",
"bU c #d9d9d9",
"#U c #dadada",
"ao c #dbdbdb",
"bV c #dddddd",
"#G c #dedede",
"cI c #dededf",
"#l c #dfdfdf",
"a5 c #e0e0e0",
"#k c #e1e1e1",
"#F c #e2e2e2",
"cs c #e2e2e3",
"aI c #e3e3e3",
"#3 c #e4e4e4",
"cj c #e5e5e5",
"c. c #e6e6e6",
"ci c #e8e8e8",
"#m c #e9e9e9",
"bW c #ebebeb",
"b9 c #ececec",
"aJ c #ededed",
"c# c #eeeeee",
"bb c #efefef",
"b8 c #f0f0f0",
"ck c #f2f2f2",
"cp c #f3f3f3",
"b7 c #f4f4f4",
"b6 c #f5f5f5",
"bc c #f6f6f6",
"aS c #f7f7f7",
"cF c #fafafa",
"ca c #fcfcfc",
"QtQtQtQtQtQtQtQtQtQtQtQtQtQtQtQtQtQtQtQtQtQtQtQtQtQtQtQtQtQtQtQt",
"QtQtQtQtQtQtQtQtQtQtQtQtQtQtQtQtQtQtQtQtQtQtQtQtQtQtQtQtQtQtQtQt",
"QtQtQtQtQtQtQtQtQtQtQtQtQtQtQtQtQtQtQtQtQtQtQtQtQtQtQtQtQtQtQtQt",
"QtQtQtQtQtQtQtQtQtQtQtQtQtQtQtQtQtQtQtQtQtQtQtQtQtQtQtQtQtQtQtQt",
"QtQtQtQtQtQtQtQtQtQtQtQtQtQtQtQtQtQtQt.#.a.b.c.dQt.e.a.f.g.hQtQt",
"QtQtQtQtQtQtQtQtQtQtQtQtQtQtQtQtQtQt.i.j.k.l.m.n.o.p.k.l.q.rQtQt",
"QtQtQtQtQtQtQtQtQtQtQtQtQtQtQtQtQt.s.t.u.v.w.x.y.z.A.B.C.D.EQtQt",
"QtQtQtQtQtQtQtQtQtQtQtQtQtQtQtQt.F.G.H.I.J.K.L.M.N.O.P.v.Q.RQtQt",
"QtQtQtQtQt.S.T.U.g.VQtQtQtQt.W.X.Y.Z.0.1.2.3.4.5.4.6.7.8.9#.QtQt",
"QtQtQtQt###a#b#c.q#dQtQtQtQt#e#f#g#h#i#j#k#k#l#m#n#o#p#q#r#sQtQt",
"QtQtQt#t#u#v#w#x#y#zQtQtQtQt#A#B#C#D#E#F#G#H#I#J#K#L#M#N#O#PQtQt",
"QtQt#Q#R#S#T#U#V#W#XQtQtQtQt#Y#Z#0#1#2#3#4#5#6#7#8#9a.a#aaabQtQt",
"acadaeafagahaiajakalQtQtQtQtaman#0#1#2#kaoapaqar#n#l#JasatauQtQt",
"avawaxayazaAaBaCaDQtQtQtQtQtaEaF#0#1aGaHaI#lao#G#kaJaKaLaMaNQtQt",
"aOaPaQaRaSaTaUaVaWaXaYaYaYaYaZa0a1a2a3a4#nazaH#K.2a5a6aLa7a8QtQt",
"a9b.b#babbbcbdbebfbfbgbgbgbgbhbibjbk#ia3blblblblbmbn.Pbo.QbpQtQt",
"bqbrbsbtbubvbwbxbybybzbzbzbzbAbB.4bCbD#EbEbEbFbGaGbHbIbJbKbLQtQt",
"bMbNbObPbQbRbSbT#k#k#U#U#U#U#UbU#UbV#l#l#G#G#lbW#K.BbXbYbZb0QtQt",
"QtQtQtb1b2b3b4b5bcb6aJb7bcb8b9b9aJaJb9c.aI#mc#cabVaLcbccQtQtQtQt",
"QtQtcdcecfcg#Cchcicia5#3cj#Fa5#la5#3cj#Fa5aIc.ckcl.B#WcmQtQtQtQt",
"QtQtQtQtQtcncobacpcpaocqcra4bbb7csctcrcuc.#H#wcvcwcxcyczQtQtQtQt",
"QtQtQtQtcAcBcCcDbbaSaKcE#0bTbbcFcG#5cCcHcIcJcKcLcMcNcOcPQtQtQtQt",
"QtQtcQcRcScTcUcVcWcX#EcYcZc0c1.3c2c3cKc4bHc5c6bSc7c8QtQtQtQtQtQt",
"QtQt#e#fc9d..P.KcCd#dabocK.Ddbdbdc#6cLddc3debUaAaMaNQtQtQtQtQtQt",
"QtQtdfdg#CdhdidjdkdldmdnbRdodpdqdrdsdtdudvdwardxdydzQtQtQtQtQtQt",
"QtQtdAdBdCdDdEdFdGdHbQdIdJdKdLdLdLdLdM.WbOdNcodOdPdQQtQtQtQtQtQt",
"QtQtdRdSdTdUdVdWQtdXdYdZd0d1QtQtQtQtQtQtQtd2d3d4d5d6QtQtQtQtQtQt",
"QtQtcdced7d8d9e.e#ead7d8d9e.QtQtQtQtQtQtcdced7d8d9e.QtQtQtQtQtQt",
"QtQtQtQtQtQtQtQtQtQtQtQtQtQtQtQtQtQtQtQtQtQtQtQtQtQtQtQtQtQtQtQt",
"QtQtQtQtQtQtQtQtQtQtQtQtQtQtQtQtQtQtQtQtQtQtQtQtQtQtQtQtQtQtQtQt",
"QtQtQtQtQtQtQtQtQtQtQtQtQtQtQtQtQtQtQtQtQtQtQtQtQtQtQtQtQtQtQtQt",
"QtQtQtQtQtQtQtQtQtQtQtQtQtQtQtQtQtQtQtQtQtQtQtQtQtQtQtQtQtQtQtQt"};
