/* XPM */
static char *dummy[]={
"32 32 4 1",
". c None",
"# c #2f2f2e",
"a c #b5b5b5",
"b c #e0e0e0",
"................................",
"................................",
"................................",
"................................",
"................................",
"................................",
"................................",
"................................",
"................................",
"...................####..####...",
"...................####..####...",
".................##aa####aa##...",
".................##aa####aa##...",
"......####.....##aabbbbbb##.....",
"......####.....##aabbbbbb##.....",
"....##bb##.....##aabb##aaaa##...",
"....##bb##.....##aabb##aaaa##...",
"..##bb##.......##aabbbbbbbb##...",
"..##bb##.......##aabbbbbbbb##...",
"..##bbbb#########aaaaaaaaaa##...",
"..##bbbb#########aaaaaaaaaa##...",
"....####bbbbbbbbbbbbbbbbb##.....",
"....####bbbbbbbbbbbbbbbbb##.....",
"......##bbbbbbbbbbbbbbbbb##.....",
"......##bbbbbbbbbbbbbbbbb##.....",
"......##bbbb#bbbb##bb####.......",
"......##bbbb#bbbb##bb####.......",
"....##aa##aa#########bb##.......",
"....##aa##aa#########bb##.......",
"....####..###........####.......",
"....####..###........####.......",
"................................"};
