/* XPM */
static char *dummy[]={
"32 32 6 1",
"a c None",
". c None",
"d c #000000",
"c c #696a6a",
"b c #847e87",
"# c #9badb7",
"................................",
"................................",
"................................",
"................................",
"................................",
"................................",
"................................",
"................................",
"................................",
"................##aaaaaa........",
"........aaaaa##########a........",
"........aaaa###########a........",
"........aaa###bbb####cbb........",
"........aa#bbbbbbbbbbccbbaaaaaaa",
"........aa#bbbbbbbbbbcccbbaaaaaa",
"........a#bbbbbbbbbbcccccbaaaaaa",
"aaaaaaa####bbbbbbbbbcc##ccaaaaaa",
"aaaaaa#######bbcbbbbcc###baaaaaa",
"aaaaaa#######cccbbbbccbbccaaaaaa",
"aaaaaa###bb####cbbbcccbbc#aaaaaa",
"aaaaa#bbbc###c##c#bcccbb##aaaaaa",
"aaaaabbbbcbbbcb##cbcc###b#aaaaaa",
"aaaaabbbbcbbbcbbccbbbbcccccaaaaa",
"aaaaabbbbcbbbbbbcbbbbbbccccaaaaa",
"aaaaacbbcccbbbbbbcbbbbbbcccaaaaa",
"aaaaaccc##ccbbbbbc###bbcccdaaaaa",
"aaaaadccb##ccbbbb##bbcbccddaaaaa",
"aaaaaadddbcccbbb#bbcccccddaaaaaa",
"........dddddcccccccdddddaaaaaaa",
"........aaadddddddddddaa........",
"................................",
"................................"};
