/* XPM */
static char *_c591f5487654c9da4383212725e1eb97DwmYEnzgqzdN6HB[] = {
/* columns rows colors chars-per-pixel */
"32 32 6 1 ",
"  c None",
". c #733E39",
"X c #BE4A2F",
"o c #F77622",
"O c #FEAE34",
"+ c #FEE761",
/* pixels */
"                                ",
"                                ",
"                                ",
"                                ",
"                                ",
"                                ",
"       XX                       ",
"      X                         ",
"      X      XXXXXXXXXXXXXX     ",
"       XXXXXX              X    ",
"                            X   ",
"                           X    ",
"           oooooooo.ooooo X     ",
"         oXooOO+++...OOXXXo     ",
"        ooXoooooooo.oooooo      ",
"       Xo+oXoooooooooooo        ",
"      oXOoooXoooooooooX         ",
"      oXoooooXXXXXXX            ",
"     Xo+XXooooo  X  X           ",
"     oo+ooXXoXXo     XXoX       ",
"     oooooooXoo o   XXooX       ",
"     XXooooXo  X   XoooX        ",
"     XoXXXXXXoX X XoooX         ",
"     XoOooooXXoXXXoooX          ",
"     XoOoooXXooXoXooX           ",
"      XooXXXooXoooXo            ",
"       XXoooooXoooX             ",
"         XXXXXXXX               ",
"                                ",
"                                ",
"                                ",
"                                "
};
