/* XPM */
static char *dummy[]={
"32 32 6 1",
"# c #393142",
". c #635a63",
"b c #848484",
"a c #adada5",
"c c #ced6c6",
"d c #eff7e7",
".#######################aaaaa###",
"b.......................aaaaa###",
"b.......................aaaaa###",
"b.bbb.............aaaaabcaaaa###",
"b.bb..............aaaaabcaaaa###",
"b............aaabbccaaabcaaaa###",
"b............aaabbccaaabcaaaa###",
"b............aaaabccaaabcccca###",
"b.......abbbbcaaabccaaabcccca###",
"b.......cabbbcaaabcccaabcccca###",
"b.......cabbbcaaabcccaabcccca###",
"b.bbbbbbcabbbcaaabcccaabcaaaa###",
"b.aabbbbccaabcccabcccaabcccca###",
"b.ccabbbccaabcccabccaaabcccca###",
"b.ccabbbccaabcccabccaaabcccca###",
"b.ccabbbcaaabcaaabcccaabdcccc###",
"b.cccbbbccaabcccabcccaabaaaaa###",
"b.cccbbbccaabcccabcccaabaaaaa###",
"b.cccabbccaabcccabddcccaaaaaa###",
"b.cccabbccaabcaaabaabbbbaaaaa###",
"b.ccaabbcaaabdcccbaaaaaaaaaaa###",
"b.ccaabbcaaabdcccbaaaaaaaaaaa###",
"b.cccabbccaabbbbbbbbbbbbbbbbb###",
"b.cccabbdcccabaaaaaaabbaaaaaa###",
"b.cccabbbbbbbbaaaaaaabbaaaaaa###",
"b.cccabbbbbbbbaaaaaaabbaaaaaa###",
"b.ddccaabaaaabbbbbbbbbbbbbbbb###",
"a.bbbbbbbbbbbbbbbbaaaaaabbbbb###",
"a.bbbbbbbbbbbbbbbbbbbbbbbbbbb###",
"a.bbbbbbbbbbbbbbbbbbbbbbbbbbb###",
"cb.............................#",
"ccccaaaaaaaabbbbbbbbbbbbbbbbbbb."};
